<svg class="top-bar__logo" id="Group_128" data-name="Group 128" xmlns="http://www.w3.org/2000/svg" viewBox="0 0 504.539 241.94">
    <path id="Path_9" data-name="Path 9" class="top-bar__logo-svg" d="M499.765,146.047c-30.264-3.467-55.833-.722-77.141,5.128,8.523-21.885,26.653-67.823,30.625-72.59,5.2-6.356.65-8.74.65-8.74s-15.674-11.34-16.324-9.245c-.65,2.022-10.618,28.1-10.618,28.1-5.851,2.961-15.818,16.107-24.341,30.047-4.262,6.934-17.118,25.5-21.308,21.091s22.608-46.732,27.23-56.483-7.006-15.89-10.112-18.2c-3.178-2.311-4.117-.578-4.117.217s1.589,2.311-4.189,13.651-42.182,69.629-46.227,67.751,22.969-53.666,25.5-58.433,2.239-6.5,2.239-6.5-13.218-19.574-12.712-14.3-2.889,8.017-2.817,5.273c.072-2.672-1.228-2.817-5.851-8.379s-8.74-3.323-8.74-3.323c-38.787,16.829-71.8,74.468-74.613,72.735-2.817-1.661,4.189-27.086,19.935-51.5a315.047,315.047,0,0,0,25.714-50.127c-3.323-12.423-16.468-13.94-16.468-13.94C296.367,32.648,276,73.1,276,73.1s-1.228-.433-5.706-5.851-9.245-3.9-9.245-3.9c-31.709,10.04-60.239,65.945-60.239,65.945S189.4,149.009,187.229,144.1c-2.239-4.912,19.213-40.737,23.763-48.321s.867-10.184.867-10.184-1.517-1.661-6.428-8.523-5.417-.867-5.417-.867a94.835,94.835,0,0,1-5.128,9.462c-10.473,9.245-32.937,33.081-32.937,33.081s-10.329,12.568-4.623-1.011c7.8-18.491,28.6-33.37,28.6-33.37-1.95-6.573-19.791-17.7-19.791-17.7-4.189,5.128-9.462,13.362-9.462,13.362-22.824,30.842-21.235,31.347-30.914,42.543-6.934,8.017-2.239-1.806-2.239-1.806S139.269,98.3,141.075,91.731s-15.746-15.1-15.746-15.1a36.379,36.379,0,0,1-.867,4.189L89.865,88.7l6.5-14.735c1.878-7.223-8.74-15.1-8.74-15.1L242.412,20.441C245.229,9.606,231.434,0,231.434,0L24.714,53.233c-7.656,1.517-2.961,7.656-2.961,7.656-3.539,16.035,8.379,12.64,8.379,12.64l54.316-12.64c-.361,4.839-27.736,39.293-27.736,39.293C7.018,119.684.734,116.867.734,116.867a6.461,6.461,0,0,0,2.961,8.74c5.417,3.323,4.117,9.9,4.117,9.9,5.417,3.9,31.42-7.8,31.42-7.8-6.717,9.318-21.741,57.711-21.741,57.711.217,9.318,14.518,12.64,14.518,12.64,6.284-46.588,36.981-81.041,36.981-81.041,8.6-6.428,37.92-14.229,48.827-17.046-7.656,19.719-18.491,43.988-19.5,46.588-1.517,3.9-5.2,9.462-1.083,14.518s10.04,2.6,10.04,2.6C133.13,117.011,155.3,97.509,155.3,97.509c-14.3,23.98-6.717,30.553-6.717,30.553s5.417,8.017,13-1.661c7.656-9.679,30.7-35.609,30.7-35.609-16.035,26.364-19.791,42.76-22.319,50.7-3.539,11.34,14.735,25.714,23.836,8.74,9.1-16.9,15.963-24.558,15.963-24.558-.578,5.2-.506,11.846.722,14.879,1.878,4.55,7.656,15.1,20.08,11.7,12.5-3.323,22.174-19.141,22.174-19.141-.361,1.878.217,12.279,7.223,17.335,7.078,5.056,8.6.361,8.6.361,9.318-25.858,33.153-51.572,33.153-51.572s-10.4,15.818-11.557,28.819c-1.083,13,8.379,22.535,16.757,24.2s19.574-12.64,19.574-12.64c-3.323,10.4,3.756,11.34,3.756,11.34s.144-.217,7.656,3.9c5.417,2.961,12.857-1.661,21.091-16.757,3.395-6.284,10.834-19.719,16.54-30.12-6.645,14.518-10.257,31.131-1.878,38.5,9.173,8.017,18.418.722,18.418.722a136.532,136.532,0,0,0,25.28-32c-6.645,17.913-12.857,32.5-18.563,44.565-36.692,16.4-56.267,41.1-61.973,48.827-9.679,13-6.356,34.453,19.719,33.3,26.075-1.083,61.684-79.163,61.684-79.163s.506-1.3,1.372-3.539a195.186,195.186,0,0,1,50.633-9.968c31.059-1.661,33.659,4.262,33.659,4.262C506.771,146.986,499.765,146.047,499.765,146.047ZM259.747,107.332c-4.261,12.062-26.075,30.12-33.659,34.02-7.656,3.9-7.44-1.3-7.44-1.3,4.623-36.476,53.811-59.95,53.811-59.95S264.009,95.27,259.747,107.332Zm77.791,2.095c-35.176,38.859-36.548,31.42-36.548,31.42s-6.067-10.979,11.99-33.659,43.554-29.181,43.554-29.181Zm26,109.21c-10.618,15.6-44.132,21.741-9.679-17.118a142.421,142.421,0,0,1,39.726-31.131C380.514,196.174,370.4,208.525,363.541,218.637Z" transform="translate(-0.041 0)"></path>
    <path id="Path_10" data-name="Path 10" class="top-bar__logo-svg" d="M306.226,59.832c-4.045-7.367-6.356-1.806-6.356-1.806-5.128,7.728-8.74,12.857-8.74,12.857s-2.022,2.384-.867,4.695,6.717,7.8,6.717,7.8,4.478,6.717,7.223,3.106c2.817-3.684,5.345-7.512,5.345-7.512,5.49-6.934,3.323-8.884,3.323-8.884S310.27,67.2,306.226,59.832Z" transform="translate(-80.54 -15.555)"></path>
</svg>